<mxfile host="app.diagrams.net" modified="2022-09-29T14:14:21.514Z" agent="5.0 (Windows NT 10.0; WOW64) AppleWebKit/537.36 (KHTML, like Gecko) Chrome/105.0.0.0 Safari/537.36" etag="7zKQLuodJX8JH8p4hKZR" version="20.3.7" type="github">
  <diagram id="AkfqR6wncKCYPhCOEmLY" name="Page-1">
    <mxGraphModel dx="868" dy="450" grid="1" gridSize="10" guides="1" tooltips="1" connect="1" arrows="1" fold="1" page="1" pageScale="1" pageWidth="850" pageHeight="1100" math="0" shadow="0">
      <root>
        <mxCell id="0" />
        <mxCell id="1" parent="0" />
        <mxCell id="Be37BUFfYUxOykrdFoLC-2" value="Actor" style="shape=umlActor;verticalLabelPosition=bottom;verticalAlign=top;html=1;outlineConnect=0;" vertex="1" parent="1">
          <mxGeometry x="410" y="20" width="30" height="60" as="geometry" />
        </mxCell>
        <mxCell id="Be37BUFfYUxOykrdFoLC-4" value="" style="strokeWidth=2;html=1;shape=mxgraph.flowchart.annotation_2;align=left;labelPosition=right;pointerEvents=1;rotation=90;" vertex="1" parent="1">
          <mxGeometry x="395" y="-15" width="60" height="320" as="geometry" />
        </mxCell>
        <mxCell id="Be37BUFfYUxOykrdFoLC-5" value="" style="strokeWidth=2;html=1;shape=mxgraph.flowchart.annotation_2;align=left;labelPosition=right;pointerEvents=1;rotation=90;" vertex="1" parent="1">
          <mxGeometry x="560" y="180" width="50" height="100" as="geometry" />
        </mxCell>
        <mxCell id="Be37BUFfYUxOykrdFoLC-6" value="" style="line;strokeWidth=2;direction=south;html=1;" vertex="1" parent="1">
          <mxGeometry x="260" y="210" width="10" height="110" as="geometry" />
        </mxCell>
        <mxCell id="Be37BUFfYUxOykrdFoLC-7" value="" style="line;strokeWidth=2;direction=south;html=1;" vertex="1" parent="1">
          <mxGeometry x="260" y="360" width="10" height="110" as="geometry" />
        </mxCell>
        <mxCell id="Be37BUFfYUxOykrdFoLC-8" value="" style="strokeWidth=2;html=1;shape=mxgraph.flowchart.annotation_2;align=left;labelPosition=right;pointerEvents=1;rotation=90;" vertex="1" parent="1">
          <mxGeometry x="240" y="347.5" width="45" height="360" as="geometry" />
        </mxCell>
        <mxCell id="Be37BUFfYUxOykrdFoLC-9" value="" style="line;strokeWidth=2;direction=south;html=1;" vertex="1" parent="1">
          <mxGeometry x="257.5" y="520" width="10" height="30" as="geometry" />
        </mxCell>
      </root>
    </mxGraphModel>
  </diagram>
</mxfile>
